<?xml version="1.0" encoding="UTF-8"?>
<svg id="coralBanner1" xmlns="http://www.w3.org/2000/svg" viewBox="0 0 117.38 192.44">
  <defs>
    <style>
      .cls-1 {
        stroke-width: .17px;
      }

      .cls-1, .cls-2, .cls-3, .cls-4, .cls-5 {
        stroke: #570060;
      }

      .cls-1, .cls-3, .cls-4, .cls-5 {
        fill: none;
        stroke-linecap: round;
        stroke-linejoin: round;
      }

      .cls-2 {
        fill: #ffebde;
        stroke-miterlimit: 10;
      }

      .cls-3 {
        stroke-width: .33px;
      }

      .cls-4 {
        stroke-width: .85px;
      }

      .cls-6 {
        fill: #570060;
        stroke-width: 0px;
      }

      .cls-5 {
        stroke-width: .21px;
      }
    </style>
  </defs>
  <path class="cls-2" d="M116.84,31.87c-.3,3.1-.67,6.2-1.12,9.29-.07.48-.15.99-.46,1.36-.54.67-1.54.67-2.4.62-16.74-1.01-33.55-.66-50.23,1.04-5.73.59-11.53,1.33-17.24.54-3.43-.48-7.25-1.43-10.13.51-1.2,2.8.65,5.9,2.42,8.38,4.56,6.4,9.11,12.8,13.67,19.2,1.12,1.57,2.09,4.09.46,5.11,5.57,8.01,7.8,19.59,1.84,27.29-2.7,3.49-5.53,6.93-8.86,9.82-2.7,2.34-1.49,2.98-9.75,6.97-1.07.52-4.92,20.53-4.04,31.26.27,3.32.74,6.66,1.93,9.77,4.24,11.06,18.26,16.92,29.23,12.64,3.4-1.33,6.74-3.86,7.34-7.48.6-3.62-3.18-7.69-6.49-6.16-1.1.5-1.98,1.69-1.74,2.88.24,1.19,1.95,1.9,2.75.99-.54-1.31-.54-2.83,0-4.13,1.78-.9,4.11.44,4.69,2.36.58,1.92-.3,4.04-1.72,5.44-3.7,3.63-10.65,2.29-13.34-2.16s-1.17-10.72,2.81-14.03c3.99-3.31,9.85-3.79,14.67-1.92,2.71,1.05,5.2,2.82,6.78,5.27,1.19,1.84,1.84,4,2.21,6.16.92,5.35.2,11.12-2.74,15.67-2.98,4.61-8,9.39-13.27,10.82-5.28,1.43-11.32,2.89-16.77,2.51-5.87-.41-12.5-3.52-17.55-6.56-5.51-3.32-11.09-10.25-13.46-16.25-2.37-6-4.6-6.29-3.69-14.05.83-7.03-2.34-18.43-1.2-27.36-4.49.57-5.91-5.64-7.39-10.37-2.63-8.44-5.12-18.17-.43-25.64.62-.99,1.36-1.92,1.69-3.04.37-1.22.52-2.61.03-3.79C-.29,71.07-.55,57.92,2.21,45.91c2.22-9.69,9.1-15.88,16.48-22.5,7.38-6.61,16.01-11.63,24.58-16.59-.92-.2-1.39-1.52-1.08-2.41.31-.89,1.09-1.52,1.83-2.1.96-.75,1.97-1.53,3.17-1.75,2.46-.45,4.65,1.56,6.25,3.5,1.28,1.56,2.5,3.19,4,4.53,1.78,1.59,3.9,2.72,6.01,3.83,2.75,1.46,5.77,2.96,8.83,2.41-.09-.53,0-1.08.23-1.56,3.16,3.65,6.33,7.35,9.48,11,1.85,2.13,3.82,4.35,6.48,5.26,1.67.57,3.47.57,5.23.57,5.17-.01,5.66,2.04,10.83,2.03,2.85,0,9.53-.86,12.32-.27Z"/>
  <g>
    <path class="cls-5" d="M33.85,42.3c-1.25.48-2.57-.42-3.61-1.27-1.7-1.39-3.41-2.79-5.11-4.18-.3-.25-.61-.5-.8-.84-.2-.36-.26-.79-.5-1.12-.32-.42-.87-.58-1.35-.8-1.33-.59-2.31-1.76-3.11-2.98-.37-.56-.71-1.15-1.21-1.59-.56-.5-1.27-.79-1.84-1.27s-1-1.3-.68-1.97c-.61.52-1.32,1.01-1.93,1.53,1.51.81,1.36,3.12,2.54,4.37.6.64,1.44.97,2.17,1.45,1.44.94,2.41,2.43,3.54,3.72.54.62,1.13,1.21,1.75,1.75,2.43,2.12,5.38,3.55,8.28,4.95.07.47.09,1.14.16,1.61-2.13.53-4.07-1.32-6.19-1.91-1.24-.35-2.64-.28-3.7-1.02-.82-.57-1.29-1.54-2.03-2.21-.63-.57-1.43-.91-2.19-1.28-3.34-1.62-6.23-4.02-9.09-6.4-.26.6-.49,1.15-.75,1.74,1.83.24,2.91,2.33,4.21,3.65,2.03,2.06,4.94,2.9,7.43,4.37,1.46.87,2.8,1.97,4.34,2.67,3.15,1.44,7.15,1.24,9.54,3.76-.22-.94-.25-2.07-.12-3.02s.69-1.92,1.6-2.22c-.15-.51-.89-1.24-1.35-1.5Z"/>
    <path class="cls-5" d="M16.42,34.44c-1.63-1.23-2.82-2.94-3.98-4.63-.54.25-1,.68-1.3,1.2,1.69.85,2.81,2.52,4.36,3.6,1.63,1.13,3.43,2.03,5.01,3.17-.77-1.57-2.76-2.33-4.1-3.35Z"/>
    <path class="cls-5" d="M22.47,31.63c-2.08-.81-3.83-2.44-4.8-4.46-1.23-2.58,1.27-.32,1.88.45.64.81,2.05,3.67,2.91,4.01Z"/>
    <path class="cls-5" d="M12.21,38.9c-1.48-.86-2.96-1.71-4.44-2.57-.12.25-.25.5-.37.75,1.59.43,3.16.93,4.7,1.51"/>
    <path class="cls-5" d="M18.66,44.25c-4.3-1.23-8.35-3.31-11.86-6.09-.37.32-.91.64-1.29.96,2.57,1.14,5.15,2.28,7.72,3.43,1.52.67,3.78,1.54,5.43,1.7Z"/>
    <path class="cls-5" d="M5.61,41.52c-.08-.04-.51.77-.54.87,1.32.69,3.42,1.51,4.94,1.35-1.42-.79-2.95-1.45-4.4-2.22Z"/>
    <path class="cls-1" d="M33.27,49.49c.43.94,1.12,1.77,1.96,2.37-3.13.12-6.26.24-9.39.35-1.47.06-2.95.11-4.38-.22-1.54-.35-2.95-1.14-4.46-1.6-2.42-.74-5-.63-7.52-.51-1.37.07-2.75.13-4.12.2-.66.03-1.35.06-1.96-.2s-1.11-.91-.99-1.56c1.44.32,2.85.51,4.29.82-1.15-.7-2.14-1.4-3.3-2.1-.27-1.13.01-2.56.66-3.52.87,1.17,2.28,2.04,3.69,2.41-1-.85-1.97-1.83-2.97-2.68,2.26.54,4.1,2.45,6.42,2.63.7.05,1.4-.06,2.09.04,2.12.29,3.73,2.41,5.87,2.41.69,0,1.36-.23,2.05-.31,1.65-.21,3.28.38,4.9.77,2.33.56,4.78.94,7.16.7Z"/>
    <path class="cls-5" d="M27.37,53.32c-1.82.29-3.68.32-5.51.09-1.12-.14-2.22-.37-3.35-.44-1.75-.1-3.49.21-5.23.33-3.84.26-7.75-.46-11.26-2.06.13-.3.3-.75.43-1.05,3.23,1.31,6.8,1.77,10.28,1.8,1.33.01,2.65-.08,3.98-.05,1.74.03,3.46.26,5.19.49,1.85.24,3.7.49,5.55.73.11.01.23.05.26.15s-.37.11-.35,0Z"/>
    <path class="cls-5" d="M36.98,54.7c-1.99-.84-4.24-.02-6.36.43-5.75,1.22-11.71-.49-17.59-.2-1.59.08-3.18.3-4.77.2-2.21-.14-4.37-.93-6.16-2.24-.02.98-.04,1.96-.07,2.95,3.91,1.89,8.49,1.25,12.82,1.46,4.61.22,9.27,1.6,13.77.58,1.75-.39,3.4-1.14,5.16-1.48,1.76-.35,3.74-.23,5.12.92-.78-.76-.93-2.19-1.93-2.62Z"/>
    <path class="cls-5" d="M38.86,57.91c-2.67-.02-5.12,1.41-7.67,2.19-6.55,1.99-13.58-.34-20.42-.03-3.06.14-6.25.79-9.11-.31.04-.57.08-1.13.12-1.69,3.75,2.18,8.51.05,12.82.38,1.99.15,3.92.78,5.9,1.06,6.16.87,12.15-1.2,18.36-1.59Z"/>
    <path class="cls-3" d="M40.9,59.07c-.94,1.56-2.79,2.35-4.59,2.6s-3.63.04-5.45.13c-3.52.17-6.95,1.44-10.46,1.28-1.8-.08-3.57-.53-5.35-.79-4.31-.63-8.69-.12-13.02.39-.17.83-.21,1.44-.06,2.28,5.66-.5,11.36-.56,17.04-.35,1.82.07,3.68.18,5.37.88-3.18.58-6.35,1.35-9.58,1.39-.64,0-1.29,0-1.93.06-.81.08-1.6.29-2.39.5-2.57.67-5.18,1.31-7.84,1.38,0,.45-.17.88-.17,1.33,4.93-.68,9.84-1.43,14.77-2.11,2.38-.33,4.76-.65,7.16-.73,3.29-.1,6.74.25,9.75-1.09,1-.44,1.92-1.06,2.93-1.47,2.18-.88,4.94-.88,6.35-2.77-1.25-.33-1.8-1.81-2.52-2.89Z"/>
    <path class="cls-5" d="M20.02,70.74c3.62.83,7.34-.56,11.04-.93,1.09-.11,2.21-.13,3.25-.48,1.03-.35,1.94-1.01,2.97-1.37.98-.34,2.03-.39,3.05-.56s2.07-.49,2.8-1.24.79-2.08.15-2.9c-.16,1.19-.96,2.27-2.05,2.76-6.51,2.94-13.73,4.63-20.86,4.11.12.37.03.52-.35.61Z"/>
    <path class="cls-5" d="M17.92,69.7c-.68,1.16-2.33,1.11-3.58,1.6-.84.33-1.54.95-2.38,1.28-1.56.6-3.33.11-4.98.38-1.29.21-2.45.89-3.58,1.55-.27-.36-.61-.8-.88-1.16,1.03.1,2.03-.49,3.04-.75.45-.11.9-.23,1.36-.34,3.8-.95,7.2-1.6,11-2.56Z"/>
    <path class="cls-3" d="M44.54,62.57c.67,1.51,1.23,3.14,1.08,4.79s-1.19,3.31-2.78,3.71c-.96.24-1.96.01-2.94-.07-2.8-.24-5.55.72-8.3,1.32-6.67,1.44-13.65.72-20.33,2.09-2.53.52-5.08,1.34-7.65,1.05.58.86.96,1.81,1.06,2.84,2.47-.14,4.88-.76,7.3-1.27.43-.09.86-.18,1.29-.27,1.39-.29,2.78-.59,4.19-.75,2.54-.29,5.12-.15,7.63.33-.96.05-1.72.62-2.68.67-.49.03-.99.05-1.47.15-.38.07-.75.19-1.12.27-1.36.28-2.78.07-4.16.18-.98.08-1.95.32-2.9.56-2.71.68-5.41,1.35-8.12,2.03.27.36.46.53.73.89-.03.23-.03.62-.06.85,2.48-.69,4.98-1.26,7.46-1.95.89-.25,1.79-.49,2.68-.74,2.45-.68,4.92-1.36,7.46-1.58,2.04-.17,4.09-.04,6.14-.12,3.98-.16,7.89-1.11,11.8-1.85,2.33-.44,4.9-.76,6.92.5.97.6,1.7,1.52,2.37,2.44,1.7,2.34,3.13,4.87,4.28,7.52,1.1,1.81,1.89,3.81,2.34,5.88-2.4-3.72-.82-9.09-3.39-12.69-.91-1.27-2.25-2.16-3.56-3.01-2.04-1.32-4.16-2.63-6.54-3.07-1.79-.33-3.64-.15-5.45.04-1.77.18-3.54.36-5.3.54,1.96-1.04,4.11-2.28,6.32-2.39,2.35-.12,4.68.68,7.02.48.74-2.36,1.42-5.09.2-7.24-.33-.58-1.06-1.61-1.52-2.1Z"/>
    <path class="cls-5" d="M51.56,74.4c-.87-2.2-1.85-4.36-2.93-6.46-.34,1.41-1.31,2.73-2.49,3.57,1.91.1,3.87,1.75,5.43,2.89Z"/>
    <path class="cls-5" d="M44.81,77.75c-1.51-.29-3.06-.11-4.59.06-6.23.71-12.47,1.43-18.7,2.14,5.67,1.03,11.45.11,17.11-.95,1.45-.27,2.96-.55,4.37-.1.55.18,1.12.46,1.68.33s.7-1.37.13-1.48Z"/>
    <path class="cls-5" d="M48.76,81.45c3.12,1.91,5.31,5.28,5.8,8.92-.82-.75-1.61-1.51-2.43-2.25-1-.91-.76-2.76-1.38-3.96-.56-1.08-.91-2.17-2-2.7Z"/>
    <path class="cls-5" d="M29.31,82.24c5.06-1.22,10.38-2.44,15.39-1.06-1.49.53-2.98.13-4.56.11-.89-.01-1.77.12-2.64.25-2.97.45-5.23.25-8.2.7Z"/>
    <path class="cls-5" d="M7.19,83.28c2.85.29,5.76-.12,8.42-1.18-2.89.18-5.64.36-8.42,1.18Z"/>
    <path class="cls-5" d="M56.98,95.8c-.19,1.17-1.43,1.88-1.86,2.99-.19.49-.21,1.03-.21,1.56,0,1.43.12,2.96-.59,4.21-.15-1.66-.07-3.31.1-4.97.09-.88.23-1.78.67-2.54s1.01-1.3,1.89-1.24Z"/>
    <path class="cls-3" d="M49.31,107.41c1.44-3.22,2.88-7.36,3.12-10.5.28-3.73-.47-9.05-4-10.21-3.66-1.2-7.6-1.12-11.44-1.03-4.95.12-9.95-.08-14.9.04-.2-.71-.45-1.71-.65-2.42,3.63.42,7.31.45,10.95.09,2.38-.23,4.83-.56,7.07.29,1.21-.58,2.61-.47,3.95-.34,1.54.15,3.31.4,4.86.55,1.55,2.02,3.1,4.03,4.64,6.05.51.67,1.03,1.35,1.33,2.13.92,2.39-.35,4.99-.7,7.53-.15,1.11-.13,2.25-.47,3.32-.4,1.27-1.28,2.32-2.13,3.33-.81.96-1.61,1.91-2.42,2.87,1.07-1.27.3-3.08.4-4.57.16-2.15.91-4.23,1.7-6.21.49-1.23.99-2.67.31-3.8-1.68,1.79-4.65,2.28-6.94,1.42-.98-.37-1.85-.98-2.83-1.34-1.17-.43-2.43-.49-3.68-.55-3.73-.17-7.47-.34-11.2-.51-3.57-.16-7.14-.32-10.71-.16-1.68.07-3.36.22-5.04.09-1.47-.11-2.93-.43-4.32-.94-.42,1.41-.96,2.88-1.27,4.32.61-.87,1.18-1.71,1.5-2.72.92,1.56,3.1,1.44,4.91,1.52,3.14.14,6.28.21,9.42.22,1.38,0,2.84-.02,4.05-.7,3.8.63,7.61,1.11,11.41,1.74.65.11,1.34.22,1.97.02.55-.17,1.03-.56,1.6-.62.7-.08,1.35.35,1.98.67,1.13.57,2.41.82,3.67.74.43-.03.9-.09,1.28.12.31.18.49.51.64.83,1.01,2.15,1.16,4.68.41,6.93-.95,2.88-3.22,5.1-5.4,7.2-1.35,1.3-3.04,2.7-4.87,2.29-1.48-.33-2.43-1.74-3.63-2.66-1.53-1.19-3.62-1.61-5.49-1.11-3.24.86-6.71.72-10.05.53-4.48-.25-8.93-1.61-13.37-1.04.91.85,1.72,1.68,2.45,2.7-.41.76-.59,1.64-.52,2.51.97-.59,1.48-1.45,2.33-2.21s1.87-1.43,3-1.48c1.08-.05,2.15.47,3.23.33-.81.43-1.26.96-2.07,1.39-.65.34-1.32.7-1.8,1.26-.3.35-.52.77-.84,1.1-.81.84-2.08.96-3.24,1.03.27.38.36.9.31,1.36-.02.16-.06.32-.02.48.05.19.2.34.33.49.41.48.61,1.14.54,1.77-.06-1.2.8-2.24,1.56-3.16,1.33-1.62,2.73-3.29,4.62-4.18,1.61-.76,3.44-.89,5.22-1,1.88-.12,3.76-.24,5.64-.36,1.79-.11,3.64-.22,5.34.37,1.7.59,3.23,2.06,3.33,3.86,2.06-.34,4.3-.23,6.35.22,3.53-1.73,5.19-7.92,8.6-9.88Z"/>
    <path class="cls-5" d="M23.59,89.69c4-.14,8-.47,11.97-.98,2.11-.27,4.23-.6,6.36-.51,2.13.09,4.3.63,5.99,1.93-8.29-.14-16.12.75-24.34,1.84-.09-.61.1-1.66.02-2.27Z"/>
    <path class="cls-5" d="M20.56,83.21c.37,1.59.49,3.24.34,4.86-4.62,1.29-9.5,1.8-14.27,1.37.02-.79.04-1.48.05-2.27,3.11-.4,6.18-.95,9.29-1.35.53-.07,1.07-.14,1.6-.08,1.08.11,2.2.71,3.2.28-2.59-1.92-6.01-1.78-9.17-1.19-1.61.3-3.21.73-4.74,1.34-.38-.85-.76-1.39-1.14-2.25,2.36.5,4.78.61,7.17.28,1.02-.14,2.01-.43,3.01-.68,1.79-.44,2.82-.17,4.66-.3Z"/>
    <path class="cls-5" d="M21.76,89.65c-.31.64-.46,1.36-.46,2.07-1.79-.61-3.88-.11-5.74.16-2.74.4-5.54.47-8.3.18,0-.4-.03-1.02.2-1.35,4.78.3,9.6-.16,14.3-1.06Z"/>
    <path class="cls-5" d="M44.59,86.83c-2.83-.61-5.75.38-8.64.38-1.31,0-2.61-.2-3.92-.28-2.69-.16-5.37.22-8.04.6"/>
    <path class="cls-5" d="M32.73,92.84c3.47-.11,6.94-.22,10.42-.33.49-.02,1-.03,1.47.13,1.01.33,1.61,1.34,2.13,2.27-3.3-1.29-6.97-2.18-10.51-2.19"/>
    <path class="cls-5" d="M44.98,100.11c-1.74-1.6-4.23-2.09-6.58-2.11-2.35-.02-4.7.37-7.05.27-2.41-.11-4.77-.74-7.18-.79-4.47-.09-8.91,1.83-13.32,1.12-2.24-.36-4.83-1.31-6.57.15,2.76.79,6,1.47,8.83,1.93.95.15,1.92.29,2.87.11,1.02-.19,1.94-.73,2.91-1.1,1.67-.63,3.48-.73,5.26-.78,3.79-.11,7.58-.03,11.37.05,1.48.03,2.96.06,4.43.25,1.8.23,3.36.21,5.04.9Z"/>
    <path class="cls-5" d="M44.26,103l-.52,1.25c-3.49-.77-7.27-.96-10.84-.72,2.54.76,5.09,1.58,7.64,2.33,1.12.33,2.42.85,2.68,1.99-.62.81-1.24,1.96-1.86,2.77-2.78-2.63-6.88-3.5-10.61-4.33-2.86-.64-5.75-1.27-8.68-1.18-3.8.12-7.56,1.47-11.33.99-1.71-.22-3.42-.81-5.12-.53.55-.79,1.51-.97,2.46-.83s1.85.55,2.79.76c2.14.46,4.35-.19,6.49-.63,4.27-.89,8.71-.96,13.01-.21-2.33-1.01-4.62-1.87-7.15-1.93-1.12-.03-2.24.14-3.35.3-4.14.62-8.35,1.27-12.49.65-1.12-.17-2.52-.83-2.34-1.95,4.68.44,9.31.52,14.01.27,2.28-.12,4.54-.4,6.81-.54,6.37-.39,12.07.63,18.38,1.55Z"/>
    <path class="cls-5" d="M38.07,111.41c-5.66-3.84-12.97-3.82-19.78-3.66-4.34.1-8.68.2-13.02.3-.01.24.06.39.22.57,2.83-.33,5.7-.24,8.5.27,3.07-.59,6.37.53,9.48.39,1.14-.05,2.28-.24,3.42-.3,3.84-.22,7.75,1.09,10.71,3.57.28-.19.43-.8.47-1.13Z"/>
    <path class="cls-5" d="M5.38,91.07c-.41,2.35-.81,4.7-1.22,7.05-.12.7-.72,1.22-1.09,1.83.18-1.28.04-2.59.18-3.87.2-1.82.96-3.61,2.13-5.01Z"/>
    <path class="cls-5" d="M4.05,101.01c-.58,3.34-1.15,6.68-1.73,10.02-.06-2.93.25-5.71.91-8.57.16-.69.27-1.01.82-1.46Z"/>
    <path class="cls-5" d="M6.15,103.98c-.87,1.5-1.74,2.99-2.61,4.49.3-1.99.6-3.99.89-5.98.12.98.19,1.79.31,2.77.28-.51.8-.87,1.36-.97-.15.02.2-.33.05-.31Z"/>
    <path class="cls-5" d="M4.78,111.23c.32,2.45.79,4.87,1.43,7.26-.65-.84-1.04-1.86-1.27-2.9-.12-.54-.18-1.09-.4-1.59s.77-2.7.23-2.77Z"/>
    <path class="cls-5" d="M3.34,112.77c.76,1.88,1.38,3.82,1.84,5.8-1.87-1.87-2.15-4.78-2.31-7.43.58.15-.11,1.48.47,1.63Z"/>
    <path class="cls-5" d="M7.17,124.27c.61.45,1.45.81,1.87,1.45.06-1.87-.61-3.76-1.84-5.17-.54.17-.81-.03-1.37-.14.47.97,1.12,2.8,1.34,3.86Z"/>
    <path class="cls-5" d="M9.98,123.91c.1-.12.32-.47.42-.59-.66-1.97.56-4.17,2.29-5.29s3.86-1.4,5.91-1.6c.85-.09,1.71-.16,2.56-.03.54.09,1.09.26,1.62.11.34-.09.63-.3.95-.43.81-.31,1.7-.05,2.56.06s1.88-.01,2.32-.76c-2.6.16-5.33-.16-7.93,0-1.88.11-3.78.23-5.59.75-1.81.53-3.55,1.51-4.65,3.05s-1.33,3.06-.45,4.73Z"/>
    <path class="cls-3" d="M33.2,122.45c.24-1.3.83-2.54,1.68-3.54-1.03-.36-2.1-1.1-2.64-2.05-1.15.65-2.31,1.13-3.46,1.79-1.78,1.01-4.05.68-6.07.36-.8-.13-1.61-.31-2.42-.28-.72.03-1.42.23-2.14.28-1.61.1-3.27-.61-4.8-.09-1.04.35-1.85,1.29-2.07,2.37-.04.19.1.48.25.36.33.47.66.97,1,1.43,1.49-.85,2.98-1.89,4.47-2.74-.2,0,.04.31.25.29,1.44-.08,2.9.13,4.26.62.68.25,1.39.56,2.1.44.03.15.06.3.09.46,1.28.07,2.57.1,3.85.17.58.03,1.28,0,1.57-.5,1.55.31,2.53.3,4.08.61Z"/>
    <path class="cls-5" d="M39.07,22.54c-.13.74-.04,1.5.05,2.25.14,1.2.29,2.4.43,3.6-.18.21-.54.14-.73-.05s-.26-.48-.32-.75c-.24-1.04-.48-2.09-.46-3.15.02-1.15.36-2.3.96-3.28.22-.35.53-.6.92-.68-.24.65-.72,1.32-.85,2.06Z"/>
    <path class="cls-5" d="M40.02,30.06c.31.33.55.74.68,1.18.03.11.06.23.03.34-.12.39-.77.14-.88-.26s.02-.85-.17-1.21"/>
    <path class="cls-5" d="M42.31,34.46l.89,3.3c.38,1.42.77,2.86,1.46,4.16-2.56-1.56-3.36-4.63-2.36-7.46Z"/>
    <path class="cls-5" d="M35.32,118.49c.11.36.24.72.38,1.07.96-.19,1.91-.39,2.87-.58.17-.41,0-.74-.43-.72-.89.05-1.93.19-2.82.23Z"/>
    <path class="cls-5" d="M15.1,123.34c4.63.12,9.26.62,13.81,1.52-1.23-.02-2.79.13-3.99.37-1.48.29-2.96-.59-4.46-.73-2.09-.2-3.51-.15-5.36-1.16Z"/>
    <path class="cls-5" d="M21.37,122.53l-2.66-.24c-.68-.06-1.39-.12-2.04.11"/>
    <path class="cls-3" d="M33.47,123.81l-1.34-.04c-1.28.9-2.65,1.71-4.1,2.28-.81,0-1.63,0-2.44-.01-.24,0-.47,0-.7.05-.25.05-.49.16-.75.2-.22.03-.43,0-.65-.03-2.28-.31-4.57-.62-6.85-.93-1.19-.16-2.57-.46-3.09-1.55-.03.62-.26,1.46-.3,2.08,3.88-.83,7.93,1.97,11.89,1.84,1.42-.05,3.1-.37,4.06.69-1.95.96-4.04,1.13-6.21,1.13-1.21,0-2.44,0-3.59-.4-.89-.31-1.7-.85-2.6-1.13-1.16-.36-2.51-.33-3.41-1.15.09.68-.09,1.58-.19,2.25,2.26-.47,5.05.39,7.35.61,1.4.14,2.81.09,4.22.04,2.22-.08,4.44-.16,6.67-.24.18-.42.69-.66,1.12-.54-.31-1.68-.13-3.82.92-5.16Z"/>
    <path class="cls-1" d="M32.13,131.57l-1.06,4.7c-5.99.85-12.09-3.18-17.9-1.52,0-.98.15-1.9.31-2.86,1.97.92,4.26,1,6.42,1.11,1.29.07,2.57.14,3.86.21.4.02.85.07,1.09.39.13.17.18.39.34.51.24.19.59.08.88-.04,2.16-.9,4.33-1.8,6.49-2.7-.14.17-.38-.02-.43.19Z"/>
    <path class="cls-5" d="M21.49,132.33c-.62-.17-1.21-.42-1.84-.52-.52-.09-1.05-.07-1.58-.07-1.93,0-3.86-.24-5.74-.69-.47-.11-1.06-.48-.87-.92,1.91-.24,3.87-.1,5.73.43,1.08.31,2.13.74,3.24.88,1.26.15,2.54-.08,3.79.12,1.12.18,2.18.66,3.33.53-2.04.28-4,.81-6.06.25Z"/>
    <path class="cls-5" d="M28.66,138.89c-1.26.27-2.6.13-3.79-.38-.39-.17-.77-.38-1.19-.4-.31-.01-.62.09-.93.11-1.03.08-1.94-.64-2.92-.99-1-.36-2.09-.32-3.16-.27-.99.04-1.99.08-2.98.12-.04-.28-.11-.67-.15-.95,2.38-.61,4.9.21,7.27.86,2.76.76,5.03,1.38,7.84,1.9Z"/>
    <path class="cls-1" d="M31.31,138.59c-.51,1.1-1.89,1.42-3.08,1.6-1.78.27-3.61.53-5.38.19-1.02-.2-1.99-.59-2.98-.89-2.02-.61-4.13-.84-6.22-1.06.27.97.27,1.88.34,2.88,1.97-.75,3.92-.15,5.99.24,1.68.32,3.35.64,5.03.95.29.06.59.11.84.28.17.11.31.27.49.36.18.09.39.1.6.12.99.06,1.99.12,2.98.18.44-1.57.65-3.41,1.41-4.85Z"/>
    <path class="cls-5" d="M27.57,144.35c-1.3.73-2.89.68-4.38.52-.86-.09-1.73-.21-2.59-.32-.92-.12-1.84-.25-2.76-.37-1.29-.18-2.59-.35-3.88-.53-.04-.33-.21-.57-.25-.91,1.11-.22,2.22.98,3.31.69.2-.05.41-.16.62-.13.32.03.57.35.9.37.22.01.42-.11.64-.14.28-.04.55.08.81.17,2.51.9,5.31.2,7.92.72-.18.06-.18-.17-.34-.08Z"/>
    <path class="cls-1" d="M20.97,142.7c-.63.37-1.39-.18-2.12-.29-.28-.05-.57-.02-.86-.01-1,.03-2-.11-2.99-.26"/>
    <path class="cls-5" d="M14.15,144.38c-.12.54-.03.98-.15,1.53.83-.16,1.69.01,2.52.21,2.24.55,4.43,1.32,6.53,2.29.6.28,1.2.58,1.85.72,1.57.34,3.33-.3,4.83.26-.01-1.54.14-3.08.45-4.58-.32.24-.67.45-.87.8-2.69.98-5.76.67-8.6.29-.91-.12-1.82-.25-2.73-.37-.7-.1-1.42-.19-2.08-.47-.68-.29-1.14-1.09-1.75-.67Z"/>
    <path class="cls-5" d="M24.01,149.61c-1.61-.01-2.79-.37-4.32-.91-1.8-.63-3.69-1.28-5.57-.99"/>
    <path class="cls-3" d="M14.08,149.73c4.45,1.05,9.07,1.36,13.61.9.93-.09,1.9-.24,2.64-.81.23,1.21.09,2.63.11,3.86-.9.5-1.98.91-2.97,1.18-2.34.64-4.81-.08-7.23.03-1.45.07-2.88.44-4.33.44-.43,0-.92-.05-1.21-.38-.19-.21-.26-.49-.33-.75-.21-.82-.42-1.64-.64-2.46,1.99.63,3.97,1.17,5.96,1.8-.06.05-.14-.05-.1-.12s.12-.08.2-.09c1.38-.13,2.77.03,4.16-.01s2.83-.32,3.91-1.19c-1.58-.3-3.13-.41-4.73-.39-.63,0-1.27.04-1.89-.08-.56-.11-1.1-.34-1.65-.5-1.88-.56-3.82-.47-5.51-1.46Z"/>
    <path class="cls-1" d="M30.23,155.4c.01.86.2,1.72.53,2.52-1.25,1.2-2.95,1.73-4.63,2.14-2.36.57-4.75,1.05-7.14,1.43-1.15.19-2.36.37-3.31,1.06.09-.7.06-1.39.15-2.1.01-.1.03-.21.11-.27s.23-.01.22.09c-.41,0-.82-.1-1.21-.21.04-.34.02-.69-.06-1.02,5.38.87,10.85-.54,15.34-3.64Z"/>
    <path class="cls-1" d="M14.88,158.67c.76-.39,1.59-.64,2.44-.74.48-.06.96-.06,1.44-.09.99-.06,1.97-.22,2.93-.47.3-.08.59-.16.9-.18.3-.02.6.03.9.05,1.24.12,2.52-.08,3.67-.56-3.2-.09-6.34.03-9.52.43-1.03.13-2.14.33-2.86,1.09-.15.16-.11.4.1.47Z"/>
    <path class="cls-5" d="M16.17,163.75c1.25-.2,2.5-.39,3.75-.59.57-.09,1.15-.18,1.7-.37.38-.13.75-.31,1.14-.42.59-.17,1.22-.18,1.83-.25,1.21-.13,2.39-.48,3.48-1.03-.64-.36-1.33-.26-2.04-.09-3.37.79-6.75,1.57-10.12,2.36.04.09.22.3.26.39Z"/>
    <path class="cls-5" d="M31.19,159.9c.11.98-.1,1.99-.6,2.83-.12.2-.25.39-.42.53-.16.13-.36.22-.54.32-.5.3-.87.77-1.28,1.19-2.04,2.12-4.97,3.11-7.83,3.8-1.09.26-2.28.56-2.92,1.47-.02-.48.1-.97.07-1.45,2.82-.42,5.68-1.07,8.1-2.58-1.11-.47-2.37-.66-3.57-.6-.93.05-1.84.26-2.75.47-.72.17-1.45.33-2.17.5-.15-.28-.41-.65-.56-.93,3.34-.4,6.51-1.34,9.68-2.45,1.02-.36,2.05-.76,2.92-1.41s1.58-1.59,1.75-2.67c.15.28.08.66.12.98Z"/>
    <path class="cls-5" d="M23.99,169.75c1.65-.59,3.2-1.47,4.55-2.6-1.03.46-2.38.79-3.41,1.25-.3.13-.63.3-.74.61-.12.34-.05.66-.4.73Z"/>
    <path class="cls-5" d="M19.98,172.87c.63-.04,1.18-.43,1.64-.87s.85-.95,1.35-1.32c-1.14.63-2.59.79-3.89.78-.3,0-.69.04-.78.33-.08.27.17.51.39.67.28.21.55.42.83.62.06.05.15.09.21.04s.22-.32.26-.26Z"/>
    <path class="cls-5" d="M12.74,133.79c.33.41.2,1.11-.25,1.37-.16-.37-.27-.89.07-1.11.08-.05.19-.1.18-.19s-.18.02-.09.03"/>
    <path class="cls-5" d="M13.32,138.98c.23.49.09,1.13-.33,1.47-.23-.33-.07-.86.3-1.01"/>
    <path class="cls-5" d="M13.07,146.19c.23.31.07.82-.29.96-.18-.28-.1-.7.17-.89"/>
    <path class="cls-5" d="M14.2,155.3c.23.18.4.42.51.7-.47.55-.88,1.16-1.21,1.82.04-.94.15-2.01.92-2.55"/>
    <path class="cls-5" d="M14.81,160.72c.2.32.22.74.06,1.08-.07.09-.21.11-.31.05,0-.36.01-.72.02-1.07"/>
    <path class="cls-3" d="M32.58,164.22l.86,2.37c-.36.57-.62,1.15-.98,1.72l-.55-.35c-.58,1.05-1.65,1.82-2.82,2.04-.34.06-.71.09-1,.28-.36.24-.54.68-.85.99-.48.48-1.21.57-1.82.87-.48.24-.88.62-1.3.96-.9.74-1.9,1.36-2.9,1.97-.2-.39-.55-.82-.75-1.21,1.83-.74,3.1-2.45,4.78-3.51,1.22-.76,2.64-1.19,3.76-2.09.54-.43,1-.96,1.46-1.49.77-.89,1.84-1.42,2.12-2.57Z"/>
    <path class="cls-5" d="M33.93,167.54c.09.49.12,1.05-.2,1.44-.2.25-.52.39-.81.52-3.51,1.56-6.47,4.13-9.38,6.66-.51.45-1.46.6-1.92,1.1.45.08.99.35,1.45.43.15.03.32.05.45-.04.1-.08.14-.21.18-.33.13-.34.38-.62.7-.79,1.59-.83,3.05-1.97,4.57-2.93.46-.29.89-.61,1.33-.93.82-.6,1.64-1.2,2.45-1.8-.77,1.3-1.63,2.7-2.85,3.58-.43.31-.9.55-1.3.91-.43.39-.76.88-1.15,1.31-.86.93-2.04,1.5-3.25,1.9.56.33,1.05.63,1.6.96.16.1.35.31.21.44.08.63.21,1.32.29,1.95.44-1.96,2.04-3.42,3.52-4.75,1.26-1.14,2.53-2.28,3.79-3.42.8-.72,1.64-1.51,1.86-2.57-.6-.97-1.09-2.59-1.56-3.63Z"/>
    <path class="cls-5" d="M28.94,182.97c1.93-2.27,3.74-4.63,5.48-7.05.98-1.36,2-2.95,2.06-4.64.79.57,1.57,1.14,2.36,1.71-1.24,1.73-1.23,3.78-2.09,5.73-.37.83-.85,1.61-1.33,2.39-.66,1.07-1.33,2.15-1.99,3.22-.14.23-.29.47-.46.68-.27.33-.62.79-.35,1.12-.6.13-1.07-.63-.95-1.23s.6-1.05,1.03-1.49c1.53-1.55,2.72-3.43,3.47-5.48-1.46,1.58-3.03,2.94-4.48,4.53-.4.44-.8.87-1.28,1.23-.21.16-.47.3-.72.21-.33-.12-.4-.98-.75-.94Z"/>
    <path class="cls-3" d="M30.63,179.05c-.7.77-1.58,1.36-2.48,1.88,1.04-1.33,2.14-2.96,3.46-4,.24.7-.51,1.6-.98,2.12Z"/>
    <path class="cls-1" d="M40.46,174.37c.66.46,1.43.76,2.23.86-.37,2.46-1.62,4.85-2.62,7.12-1,2.27-1.69,4.91-.76,7.21-1.34-1.28-3.15-2.06-4.99-2.14,1.45-.54,2.49-1.85,3.15-3.26s.98-2.94,1.45-4.42c.58-1.84,1.5-3.44,1.55-5.37Z"/>
    <path class="cls-5" d="M46.61,178.02c-.48,2.2-.95,4.41-1.28,6.64-.31,2.16-.43,4.55.82,6.34-1.19-1.36-3.27-1.71-4.95-1.07.68-1.22,1.13-2.76,1.21-4.16.01-.2.02-.4.08-.59.07-.22.21-.41.32-.61.62-1.13.36-2.52.57-3.79.19-1.18.78-2.3.73-3.49.8.48,1.58.77,2.51.74Z"/>
    <path class="cls-5" d="M50.86,178.91c.1.42.06.88-.11,1.28-.11.27-.29.51-.41.78-.17.37-.23.77-.3,1.18-.19,1.16-.38,2.33-.57,3.49-.06.34-.11.69-.27.99-.09.18-.22.34-.28.54-.05.17-.05.35-.04.53.06,1.17.33,2.32.79,3.39-.66-.08-1.33-.1-1.99-.08.32-.97.47-2,.46-3.02,0-.36-.2-.85-.54-.75.18-.82.21-1.89.39-2.71.05-.21.09-.42.07-.63-.03-.23-.13-.45-.21-.67-.57-1.52.01-3.21.59-4.73.04-.11.09-.22.19-.27.08-.04.17-.04.26-.03.69.04,1.38.07,2.06.11.07,0,.15.01.19.07s-.2.57-.26.53Z"/>
    <path class="cls-1" d="M53.82,180.88c-.73.85-1.11,1.96-1.24,3.07-.13,1.11-.04,2.24.05,3.36.12,1.39.25,2.77.39,4.16-.53-.33-1.01-.32-1.54-.66.9-2.39-.21-5.14.47-7.6.2-.73.56-1.43.59-2.19.04-.84-.31-1.78.17-2.46.39-.56,1.24-.67,1.85-.34s.98.98,1.12,1.66c.35-.73,1.06-1.26,1.72-1.72.51-.36,1.2-.62,1.76-.35.51.25.75.83.94,1.37.7,1.97,1.38,3.95,2.04,5.93.05.15.1.31.15.46.13.39.25.77.38,1.16.15.44.29.89.44,1.33.02.06.04.13.03.2-.01.09-.08.15-.15.21-.4.35-.88.59-1.39.71-.13-1.05-.32-2.17-.89-3.06-.19-.3-.42-.56-.61-.85-.86-1.25-1.09-2.81-1.3-4.31-.08-.57-.2-1.21-.69-1.52-.13,1.18-.24,2.39-.18,3.58.02.41.06.82.03,1.22-.03.4-.14.79-.19,1.19-.16,1.44.56,2.83,1.38,4.03-.91.19-1.8.49-2.71.68-.12-1.86-.45-3.69-.57-5.54.1-.43-.15-.92-.55-1.09-.17,2.54.09,4.89.66,7.37-.56-1.47-.93-3.01-1.15-4.57-.24-1.68-.29-3.39-.8-5.01-.05-.16-.11-.54-.22-.41Z"/>
    <path class="cls-5" d="M65.19,187.81c-.5-.82-1-1.64-1.5-2.46-.53-.87-1.06-1.75-1.59-2.62.51,1.62.79,3.32,1.3,4.95.5.12,1.29,0,1.79.13Z"/>
    <path class="cls-5" d="M68.2,186.43c-.59-1.03-1.05-2.15-1.75-3.12-.55-.75-1.23-1.4-1.79-2.14-1.03-1.38-1.61-3.1-1.62-4.82-.67.56-1.26,1.06-1.83,1.73,1.07,1.84,2.11,3.78,3.02,5.71.6,1.27,1.14,2.59,2.1,3.62.75-.2,1.32-.43,1.88-.96Z"/>
    <path class="cls-5" d="M66.35,182.04c.67.69,1.35,1.37,2.02,2.06.63.65,1.48,1.35,2.33,1.05-.49.23-1.23.68-1.61.29-.14-.14-.21-.33-.3-.5-.28-.53-.79-.88-1.25-1.27-.65-.54-.71-.96-1.2-1.65Z"/>
    <path class="cls-3" d="M74.92,180.26c-.48.79-1.09,1.5-1.79,2.09-.91-.62-2.12-.95-3.03-1.58-.98-.67-1.99-1.35-3.13-1.69-.25-.08-.52-.13-.75-.27-.27-.16-.47-.41-.66-.66-.67-.85-1.33-1.71-2-2.56.51-.37,1.02-.72,1.53-1.09.78.85,1.73,1.53,2.69,2.18.43.29.85.58,1.28.87,1.74,1.19,3.86,2.06,5.86,2.7Z"/>
    <path class="cls-5" d="M67.46,172.86c.2,1.27,1.02,2.42,2.14,3.03-.3.15-.7.08-.94-.16.1.29.19.58.29.86-.97-.45-1.76-1.3-2.12-2.31.23-.52.4-.9.63-1.41Z"/>
    <path class="cls-5" d="M69.28,171.59c.18.73.71,1.33,1.33,1.75s1.33.68,2.03.94c1.14.42,2.3.85,3.51.96.96.09,2-.05,2.73-.68-1.26.94-1.89,2.26-2.31,3.78-1.86-.89-3.86-1.74-5.72-2.63-.68-.32-1.37-.65-1.92-1.17s.29-2.21.36-2.96Z"/>
    <path class="cls-3" d="M79.65,170.38l-.81,1.94c-2.39.52-4.96.31-7.25-.57-.05.23-.08.58-.13.82-.72-.39-1.42-.82-2.09-1.28-.05-.71-.08-1.45-.13-2.15.38.69,1.29,1.01,2.04,1.23,2.79.81,5.57.76,8.37.01Z"/>
    <path class="cls-5" d="M74.24,169.86c.37.33.93.34,1.42.29,1.18-.11,2.35-.42,3.43-.91-1.66.16-3.23.27-4.86.61Z"/>
    <path class="cls-5" d="M80.16,165.27c.08.45.06.92-.06,1.36-1.17.29-2.35.56-3.52.85-.22.05-.44.11-.63.23-.17.11-.3.26-.45.39-.29.24-.65.36-1.01.47-1.53.49-3.3.9-4.64.02-.04-.6.04-1.08,0-1.68,1.69.07,3.36.03,5.05.1-.12.02,0-.18.11-.19,1.98-.19,3.93.02,5.16-1.56Z"/>
    <path class="cls-5" d="M72.76,166.16c2.53.02,5.06-1.04,6.93-2.74l-.23-1.77c-.27.42-.53.55-.91.88-2.13,1.83-3.03,3.21-5.8,3.64Z"/>
    <path class="cls-5" d="M72.73,164.92c-.08-.04-.13.12-.06.17s.17.02.25-.02c2.38-1.07,4.42-2.89,5.77-5.13.23-.12.11-.53-.15-.47s-.4.32-.52.55c-.7,1.32-1.91,2.29-3.07,3.21-.77.61-1.45,1.07-2.22,1.69Z"/>
    <path class="cls-3" d="M76.67,157.28c.43.54.94,1.01,1.51,1.41-1.47,1.57-3.14,3.23-4.76,4.65-.86.76-1.92,1.52-3.06,1.34-.2-.39-.53-.95-.73-1.33,1.64-.34,3.15-1.38,4.48-2.39.64-.49,1.28-.99,1.77-1.64s.88-1.23.79-2.03Z"/>
    <path class="cls-3" d="M74.59,155.05c.3.94-.41,1.87-1.07,2.6-.45.5-.91,1-1.36,1.5-.37.41-.74.82-1.15,1.2-.71.65-1.52,1.19-2.39,1.59-.14-.21-.26-.45-.39-.66.86-1.45,1.95-2.95,3.02-4.25.25-.3.51-.61.68-.96.48-.99.19-2.17-.1-3.23.92.31,1.82.74,2.63,1.27.22.15.35.79.13.95Z"/>
    <path class="cls-5" d="M69.98,152.36c-.45.74.72,1.64.45,2.46-.06.2-.2.36-.33.51-1.33,1.58-2.37,3.4-3.07,5.35-.36-.18-.82-.41-1.18-.59.19-.9.27-1.81.27-2.72,0-.32-.01-.65.04-.96.18-1,1.02-1.87.92-2.88-.01,1.05.06,2.21.05,3.26.65-.59,1.03-1.62,1.16-2.49s.05-1.76-.03-2.63c.57.12,1.19.45,1.73.68Z"/>
    <path class="cls-5" d="M66.28,151.27c-.02,1.15-.03,2.3-.05,3.46-.04-.13-.08-.26-.12-.39-.3-.95-.24-1.41-.45-2.38-.08-.36-.02-.9.35-.88.16,0,.39.09.27.21Z"/>
    <path class="cls-5" d="M64.19,151.53c-.23,2.72.3,5.5,1.49,7.95-1.84-2.3-2.18-5.08-1.49-7.95Z"/>
    <path class="cls-3" d="M62.96,151.78c-.24,2.84,1.12,5.59,1.19,8.45-.22.03-.41.03-.63.06-.78-2.05-1.59-4.21-2.37-6.27-.17-.45-.35-.92-.31-1.41.05-.74,1.38-.82,2.12-.83Z"/>
    <path class="cls-5" d="M58.38,153.29c-.15.24-.19.53-.13.8.59,2.39,2.96,3.93,4.68,5.68-.4.35-.88.78-1.36,1-.95-.97-2.02-1.93-2.97-2.9-.36-.29-.48-.78-.69-1.2s-.68-.81-1.1-.61c-.14-.24-.39-.47-.53-.72.68-.75,1.32-1.41,2.09-2.06Z"/>
    <path class="cls-3" d="M53.93,158.42c.55-.77,1.17-1.53,1.72-2.3-.05,2.08,1.72,4.79,3.72,4.26.22-.06.43.16.5.38s.08.46.19.67.42.33.57.16c-1.19-.04-2.49-.23-3.57-.74-.63-.3-1.27-.6-1.82-1.04-.41-.33-1.06-.93-1.32-1.39Z"/>
    <path class="cls-5" d="M53.41,160.9c.24.72,1.04,1.07,1.77,1.25,1.13.28,2.31.36,3.46.24-.64.67-1.75,1.17-2.67,1.15s-1.83-.28-2.73-.48c-.38-.86.06-1.24.17-2.17Z"/>
    <path class="cls-5" d="M53.58,165.72c.26.6.62.97.88,1.57.29-.53.64-1.1,1.23-1.26.49-.13,1.03.08,1.53-.02.35-.07.66-.3.94-.52.56-.44,1.1-.91,1.62-1.41-.15-.3-.33-.32-.65-.22-1.85.55-3.7,1.32-5.55,1.87Z"/>
    <path class="cls-3" d="M59.83,165.7c-.23.96-1.26,1.45-1.91,2.2-.64.74-.91,1.8-.68,2.76-.57-.42-1.15-.6-1.72-1.01.53-.9,1.44-1.61,2.3-2.18.74-.49,1.27-1.28,2.01-1.77Z"/>
    <path class="cls-5" d="M61.07,166.38c-.48.62.08,1.51-.03,2.28-.05.35-.24.66-.35,1-.25.76-.07,1.61.31,2.31-.57-.11-1.18-.2-1.75-.32-.15-.86-.17-1.86.12-2.68.1-.27.21-.53.33-.79.28-.62.56-1.25.9-1.84.18.01.29.03.47.04Z"/>
    <path class="cls-5" d="M62.34,167.76c-.01-.26-.05-.53-.11-.78-.03-.14-.11-.31-.26-.3-.14,0-.2.18-.22.32-.15.87-.3,1.75-.18,2.63s.56,1.75,1.32,2.18c.17.1.37.17.57.14s.38-.2.36-.4c0-.12-.08-.22-.14-.32-.69-1.06-1.09-2.33-1.12-3.6.08,1.34,2.22,2.55,3.4,3.18.13-.39.51-.75.46-1.15-.72,0-1.41-.5-1.65-1.18-.1-.28-.13-.59-.32-.82s-.61-.29-.73-.02c-.12.27-1.18-.08-1.39.13Z"/>
    <path class="cls-5" d="M65.12,166.96c.14.6.57,1.12,1.14,1.37s1.24.21,1.77-.1c-.77-.19-1.36-.63-2.04-1.02-.36-.2-.49-.05-.86-.24Z"/>
    <path class="cls-5" d="M69.05,165.17c-.52,1.14-2.1,1.61-3.15.95-.25-.16-.49-.44-.41-.73.07-.22.3-.34.51-.45.9-.5,1.55-1.42,1.74-2.44.52.25.53,1.04.21,1.53s-.84.79-1.24,1.21c.79.03,1.59-.16,2.29-.53l.08.51"/>
    <path class="cls-5" d="M67.25,161.88c-.32.87-1.01,1.6-1.87,1.97-.05-.46.63-.62.87-1.02.14-.24.1-.56.22-.81s.59-.33.62-.05"/>
    <path class="cls-5" d="M64.93,161.58l-.4,1.48c-.27-.17-.34-.56-.25-.86s.31-.56.52-.8"/>
    <path class="cls-5" d="M114.85,31.81c.02,1.72-.22,3.44-.71,5.08-.23.77-.86,1.69-1.59,1.39-.55-.23-.62-1.04-.35-1.57s.78-.92,1.13-1.4c.73-1.01.75-2.36.6-3.6.21.03.43.06.64.09"/>
    <path class="cls-5" d="M111.34,33.71c-2.23.58-3.32,3.18-5.37,4.24-1.23.63-2.7.63-4.03.27s-2.54-1.07-3.7-1.82c2.84,1.83,7.54,3.44,10.91,2.84-.12-1.92,1.33-3.84,2.2-5.52Z"/>
    <path class="cls-5" d="M81.95,33.33c2.51,1.09,4.87,2.52,7,4.23,1.29,1.04,2.8,2.26,4.4,1.83-.88-.37-1.91-.16-2.68-.73-.34-.25-.57-.6-.83-.94-1.8-2.37-4.93-4.44-7.89-4.4Z"/>
    <path class="cls-5" d="M89.36,32.44c1.43.98,3.35.39,5.08.47,1.75.09,3.37.92,4.98,1.63,1.61.71,3.99,2.08,5.34.95,1.78-1.48,3.84-2.62,6.03-3.33.34-.11,1.07.07,1.33.31-.12.09-.23.19-.35.28.51-.1,1.01-.21,1.52-.32-2.28-1.11-4.87.11-7.33.74-2.88.74-5.93.53-8.84-.05-1.48-.29-2.95-.67-4.44-.83-2.48-.27-4.98.05-7.48-.07-2.49-.13-5.11-.8-6.8-2.65.17-.21.35-.42.52-.62-.25,0-.5,0-.75-.01.22-.4.45-.8.67-1.2-.56.5-1.36.72-2.01,1.1-.66.38-1.38.7-2.13.74-.94.04-1.86-.35-2.66-.86-1.41-.89-2.61-2.17-3.2-3.74-.37-.98-.49-2.11-.05-3.06.29-.62.79-1.12,1.32-1.56,1.36-1.11,3.14-1.92,4.84-1.48-.23-.58-.62-1.13-1.24-1.04.32-.53.16-1.16-.07-1.73s-.65-1.05-1.1-1.46c-.08.67,0,1.47-.07,2.14-.02.13-.03.27.02.39.04.09.11.16.18.23.21.21.43.42.64.62-2.33.99-4.98,2.38-5.59,4.85-.24.96-.12,1.98.06,2.95.58,3,2.15,6.15,5.02,7.12,1.33.45,2.76.38,4.16.47s2.88.42,3.84,1.45c-1.41-1.37-2.99-2.73-4.89-3.16-.71-.16-1.45-.18-2.17-.32-2.45-.47-4.54-2.48-5.11-4.92,1.02,1.28,2.13,2.47,3.55,3.27,1.42.8,3.31.97,4.62-.01,2.24,1.62,5.23,2.01,7.94,2.52s5.57,1.26,7.44,3.31c-.01-.18-.02-.35-.03-.53.36-.27.76-.47,1.18-.6-1.27.66-2.82.13-4.1-.53s-2.6-1.47-4.03-1.33"/>
    <path class="cls-5" d="M100.1,32.78c-4.76-.62-9.52-1.24-14.28-1.85-2.21-.29-4.62-.67-6.11-2.34.44-.28.85-.53,1.29-.81-.25-.1-.5-.21-.76-.31.28-1.31-.07-2.68-.8-3.81,1.97.78,2.61,3.33,4.07,4.87.97,1.01,2.3,1.58,3.64,1.98,1.88.56,3.83.82,5.77,1.08,3.69.5,7.38,1,11.08,1.5"/>
    <path class="cls-6" d="M72.49,19.85c-.63,0-1.24.35-1.56.89-.34.58-.33,1.35.04,1.92.25.39.67.78.55,1.23-.03.12-.1.22-.14.34-.11.37.14.74.41,1.01.42.43.92.78,1.47,1.02.16.07.33.14.42.29.06.11.06.25.14.35.07.09.19.13.3.16.49.13.99.19,1.49.19.42,0,.85-.05,1.26-.14.1-.02.19-.05.27-.1.19-.14.22-.41.31-.63.12-.3.36-.55.38-.87.03-.46-.45-.82-.91-.82,0,0-.01,0-.02,0-.43,0-.83.23-1.08.54.12.16.31.25.43.41.15.2.19.5.01.68-.1.1-.24.13-.39.13-.1,0-.2-.01-.3-.03l-1.88-.32c-.17-.03-.34-.06-.49-.13-.14-.07-.26-.17-.39-.26-.26-.21-.52-.42-.78-.63-.08-.06-.16-.13-.2-.22-.15-.33.31-.65.31-1.01,0-.29-.3-.48-.49-.7-.38-.44-.34-1.13-.06-1.64s.74-.89,1.19-1.26c-.05-.13-.11-.26-.16-.39-.04,0-.08,0-.12,0h0Z"/>
    <path class="cls-5" d="M78.12,24.2l-.87.1c-.12-.19,0-.48.2-.54s.46.13.46.35"/>
    <path class="cls-5" d="M77.03,22.15c.13.08.27.17.33.31s.02.34-.13.39c-.07.02-.14,0-.2-.03-.26-.13-.32-.54-.1-.73-.38-.84-2.24-2.37-3.13-2.6-.02.4.18.97.27,1.36.71-.35,2.28.87,2.96,1.29Z"/>
    <path class="cls-4" d="M75.03,21.37c.52.35.83.99.77,1.62-.04.44-.25.91-.03,1.3.08.14.21.26.28.4s.06.36-.09.43c-.07.03-.15.02-.23.03-.26.02-.47.23-.72.32-.34.12-.74,0-1.02-.24s-.48-.55-.68-.86c-.12-.19-.23-.38-.41-.52-.12-.1-.26-.17-.39-.26-.35-.27-.5-.75-.43-1.19s.35-.82.7-1.08c.62-.46,1.5-.54,2.19-.19"/>
    <path class="cls-5" d="M115.61,36.39c.52-1.38.59-2.93.2-4.36.26.04.33.39.33.65,0,.56,0,1.11,0,1.67,0,.75.19,2.99-.81,3.07.03-.37.14-.69.27-1.04Z"/>
    <path class="cls-5" d="M115.73,42.07c-.88-.8-1.11-2.24-.53-3.28-1.37.76-2.3,2.49-3.51,3.47-.09.07-.19.15-.31.15-.13,0-.26-.07-.37-.15-.44-.3-.87-.59-1.31-.89-.88.4-1.91.71-2.87.76-.27.01-.55,0-.78-.11-.23-.11-.39-.32-.59-.49-1.19-1.02-3.21-.4-4.37-1.45-.26-.23-.45-.53-.71-.76-.42-.37-.99-.52-1.51-.76-.8-.37-1.47-.96-2.22-1.41s-1.65-.78-2.5-.55c.58.33,1.14.64,1.55,1.16.19.24.34.53.58.72s.61.28.85.08c.41.98,1.5,1.67,2.5,2.05.8.31,1.65.51,2.51.6-.78-.04-1.45.24-2.2.46,1.65.65,3.61-.26,5.26.4.33.13.66.34.81.67.1.21.12.44.25.63.35.53,1.15.35,1.75.14,1.87-.65,3.86-.94,5.84-.85.77.04,1.45.04,1.88-.61Z"/>
    <path class="cls-5" d="M92.08,41.2c-2.05-.39-3.99-1.29-5.62-2.6-1.55-1.25-3-2.96-4.98-3.1.29.42.51.88.67,1.36.31.95,1.5,1.34,2.21,2.05.46.46.94.93,1.51,1.24.59.33,1.25.48,1.91.58,1.39.22,2.9.55,4.31.46Z"/>
    <path class="cls-5" d="M82.93,38.78c-.54-.55-1.29-.84-1.95-1.23s-1.32-.96-1.42-1.73c-1.02-.44-2.13-.77-3.18-1.09-.1.51.38.92.81,1.2,1.71,1.12,3.8,2.26,5.76,2.85Z"/>
    <path class="cls-5" d="M67.86,31.62c.93.15,1.65.89,2.16,1.68s.91,1.67,1.55,2.36c.87.93,2.2,1.42,3.46,1.29-.33.28-.74.46-1.16.53,0,.29.23.52.45.7.35.3.7.6,1.07.89,1.78,1.39,3.89,2.35,6.1,2.79-.94.13-2.06.17-2.96-.14-1.92-.66-2.81-3.02-4.67-3.86-1.11-.5-2.61-.52-3.16-1.6-.2-.38-.22-.83-.3-1.26-.26-1.43-1.28-2.67-2.54-3.38Z"/>
    <path class="cls-5" d="M65.79,22.59c-.14-.57-.3-1.17-.76-1.53-.28-.22-.62-.31-.94-.45-.63-.28-1.16-.77-1.5-1.37.87.66,1.9,1.08,2.98,1.21.24.03.51.06.65.26.07.1.1.22.12.34.11.56,1.15,3.83.74,4.19-.62.54-1.19-2.22-1.29-2.64Z"/>
    <path class="cls-5" d="M72.12,16.64c-1.07.11-2.09.63-2.8,1.44-.31-.09-.36.63-.68.58-.14-.02-.21-.19-.3-.3-.15-.17-.4-.2-.62-.21-.77-.03-1.53.12-2.29.15s-1.58-.07-2.2-.53c-.38-.28-.67-.68-1.08-.9-.65-.35-1.47-.21-2.14-.53,0,.21-.23.35-.22.55-1.72-1.2-3.61-2.17-5.59-2.86-.4-.14-.8-.27-1.16-.49-.49-.3-.87-.76-1.3-1.14-1-.87-2.29-1.3-3.55-1.71-.53-.96-.87-2.31-.99-3.4-.06-.58-.07-1.19-.34-1.71-.26-.5-.72-.84-1.13-1.23s-.78-.89-.74-1.45c1.13.54,1.92,1.46,2.58,2.52,1.95,3.12,4.28,6.13,7.44,8,.99.58,2.08,1.06,3.22,1.04-.6-.9-1.4-1.77-2.35-2.29-.71-.39-1.53-.69-1.98-1.37-.19-.29-.3-.63-.51-.9-.31-.39-.81-.59-1.16-.96-.34-.35-.51-.82-.7-1.26-.84-2.05-2.05-3.95-3.54-5.58,2.92,1.44,5.33,3.78,6.6,6.78.29.69.53,1.41.99,2,.66.84,1.69,1.29,2.43,2.06.41.42.72.92,1.14,1.32.6.56,1.39.87,2.17,1.14,1.78.63,3.6,1.13,5.45,1.51,1.68.35,3.99.77,5.34-.29Z"/>
    <path class="cls-5" d="M57.99,12.38c.51.46,1.13.77,1.75,1.07.79.39,1.58.78,2.38,1.17,1.64.81,3.43,1.63,5.22,1.26-1.04-.02-2.22-.19-3.22-.48-.95-.27-1.81-.77-2.67-1.26-1.13-.65-2.32-1.12-3.45-1.77Z"/>
    <path class="cls-5" d="M54.97,7.78c.51,1.05,1.21,2,2.05,2.8,1.75,1.65,4.03,2.58,6.26,3.45-1.77-.68-3.41-1.42-5.17-2.11-.33-.13-.67-.26-.98-.45-1.2-.75-1.77-2.32-2.16-3.69Z"/>
    <path class="cls-5" d="M52.36,14.27c-1.04-.6-2.17-1.04-3.2-1.66s-1.98-1.47-2.41-2.6c-.22-.58-.28-1.2-.42-1.8-.17-.75-.45-1.47-.82-2.13.2,1.74.65,3.42,1.15,5.11.15.51.33,1.04.74,1.37.29.24.67.35,1.04.46,1.27.36,2.65.9,3.92,1.26Z"/>
    <path class="cls-5" d="M55.17,16.17c1.42.21,2.41,1.65,3.82,1.9.29.05.61.05.86.22s.37.57.13.75c-1.65-.37-3.07-1.49-4.73-1.2.36-.49.38-1.26-.08-1.66Z"/>
    <path class="cls-1" d="M54.38,16.81c-.69-1.65-2.65-2.65-4.38-2.23.11-.23-.07-.51-.31-.62s-.5-.09-.75-.11c-1.42-.08-2.68-1.08-3.35-2.34s-.82-2.75-.71-4.17c.03-.45.09-.9,0-1.34s-.38-.87-.81-.99c-.44.29-.89.58-1.33.87.5.11.88.62,1.19,1.02.27.35.32.82.29,1.26-.06.79-.34,1.55-.45,2.33s0,1.67.57,2.22c-.38.18-.97.73-1.35.91,1.29-.21,2.72-.12,3.97.28-1.33.1-2.67.39-4,.48.23.27.44.53.67.8,1.46-.22,2.93-.41,4.39-.64-1.13.85-2.46,1.31-3.87,1.24-.64-.55-1.54-.88-2.28-1.29-.12.08-.25.15-.37.23-.18.2-.21.52-.07.76s.44.35.7.29c.12.45.21,1.02-.01,1.42-.07.13-.18.24-.25.37-.22.38-.12.91.22,1.19-.68,1.29.1,3.04-.17,4.48-.08.44-.26.86-.31,1.31-.08.68.17,1.39.65,1.87,1.14,5.53,2.99,11.04,5.26,16.22.14.32.29.67.23,1.01-.14.81-1.21.99-2.03.97,1.95.74,4.02,1.16,6.1,1.33.63.05,1.27.08,1.89-.06.77-.17,1.47-.59,2.2-.9s1.56-.53,2.31-.27c-.45-.28-.75-.65-1.19-.93-.85.5-1.72,1.1-2.68,1.3s-2.02.13-2.86-.39c-1.41-.86-1.89-2.65-2.47-4.21-.7-1.87-1.7-3.6-2.7-5.32.78-.1,1.58.34,2.08.95s.9,1.33,1.53,1.82c.54.42,1.2.63,1.85.84.91.29,1.82.58,2.71.93,1.09.42,2.14.93,3.19,1.43.17.08.35.17.52.25,1.17.56,2.34,1.12,3.51,1.67-.48-.6-.48-1.03-.55-1.8.56-.29,1.23,0,1.78.3.95.5,1.9,1.01,2.85,1.52-.17-.43-.31-.85-.1-1.26.06-.13.15-.26.1-.4-.04-.13-.19-.2-.32-.24-1.5-.49-3.33-.22-4.47-1.32-.33-.32-.66-.78-1.12-.72-1.2.14-2.41-.53-3.52-1.02-.4-.18-.82-.39-1.25-.31-1.51-.65-2.89-1.82-3.76-3.23-.84-1.36-1.25-2.93-1.6-4.49-.22-1-.44-2.05-1.14-2.79.3-1.64.99-3.3,1.67-4.82.6-1.36,1.33-2.69,2.41-3.7.5-.47,1.14-.75,1.71-1.12-1.18-.02-2.45.05-3.41.73-.71.5-1.17,1.28-1.54,2.07-2.02,4.23-1.99,9.4.08,13.62-1.51-.37-2.42-1.9-3-3.35-.84-2.1-1.35-4.33-1.51-6.58-.11-1.54-.05-3.14.56-4.56.69-1.62,2.11-2.91,3.77-3.44,1.67-.54,3.53-.21,5.03.69Z"/>
    <path class="cls-1" d="M76.71,41.98c-1.65-1.56-3.62-2.78-5.76-3.56-.6-.22-1.25-.43-1.62-.94-.34-.47-.39-1.08-.53-1.64-.18-.71-.54-1.35-.9-1.99-1.04-1.87-2.07-3.73-3.11-5.6-.42-.76-.85-1.55-.99-2.41-.04-.29-.05-.59-.12-.88-.07-.31-.22-.6-.36-.89-.63-1.29-1.25-2.57-1.88-3.86.35,1.45.57,3.05.77,4.53.06.46.11.93.08,1.4-.05.7-.31,1.38-.73,1.93.4.08.81.17,1.21.25.5.54,1.03,1.11,1.52,1.65.3.33.6.67.75,1.09.13.39.11.82.17,1.24.11.75.5,1.44.88,2.1.64,1.11,1.29,2.24,2.23,3.1.54.5,1.23,1.23.81,1.83,2.35,1.25,4.97,2.13,7.59,2.64Z"/>
    <path class="cls-5" d="M69.65,41.26c-.36.28-.63.67-.77,1.11-1.79-.88-3.39-2.11-5.01-3.28-.61-.44-1.23-.89-1.84-1.33-.18-.13-.37-.27-.49-.46-.13-.2-.17-.44-.21-.67-.2-1.15-.41-2.31-.61-3.46-.23-1.3-.43-2.74.28-3.85,1.34,1.89,1.42,4.4,2.61,6.39.18.3.39.6.69.8.15.1.31.17.45.28.32.27.43.71.58,1.1.69,1.68,2.64,2.72,4.32,3.38Z"/>
    <path class="cls-3" d="M60.67,24.13c-.2,1.2-.81,2.28-1.27,3.41-1.21,2.96-1.38,6.29-.7,9.42-.41.02-.84.03-1.19-.16s-.6-.67-.39-1.03c.09-.15.24-.25.33-.39.17-.26.14-.59.12-.9-.36-4.58,1.63-9.42,2.85-13.76.66.58.39,2.58.26,3.41Z"/>
    <path class="cls-3" d="M58.77,19.8l-1.48,3.76c-.1.25-.2.51-.26.77-.07.27-.09.55-.12.83-.12,1.21-.24,2.41-.36,3.62.36.08.23.62.06.95-1.06,1.97-.75,4.37-.41,6.58-.79.29-1.67-.4-1.83-1.23s.12-1.67.26-2.5c.23-1.33.11-2.69.03-4.04-.08-1.46-.11-2.97.46-4.32.33-.8.86-1.5,1.27-2.26.51-.93.86-1.95,1.03-2.99.4.16.96.66,1.36.82Z"/>
    <path class="cls-3" d="M55.89,18.7c-.17,1.22-1.28,2.05-1.91,3.1-.53.9-.71,1.97-.84,3.01-.37,3.09-.38,6.23-.02,9.32-1.18-1.01-1.35-2.6-1.45-4.15-.18-2.67-.22-5.53,1.21-7.79.39-.62.88-1.16,1.36-1.71.49-.55,1.16-1.22,1.65-1.78Z"/>
    <path class="cls-5" d="M42.19,12.28c.12.49.34.98.23,1.47-.92.08-1.83.2-2.74.34-.09-.24.05-.51.24-.69s.43-.28.62-.46c.71-.65.46-1.8.67-2.74.16-.7.7-1.55,1.41-1.68.34,1.04-.76,2.44-.42,3.75Z"/>
    <path class="cls-5" d="M40.55,9.34c-1.28,3.94-4.67,6.73-7.91,9.29-.62.49-1.25.99-2.01,1.2-.54.15-1.11.16-1.63.35-1.05.4-1.68,1.48-2.05,2.55-.78,2.26-.78,4.78,0,7.04-.81-1.48-1.55-3.07-1.93-4.72s-.26-3.49.7-4.88c.78-1.13,2.02-1.85,3.2-2.55,4.12-2.44,7.86-5.31,11.62-8.29Z"/>
    <path class="cls-3" d="M38.12,43.88c-2.81-2.09-5.12-4.9-6.43-8.15s-1.61-6.95-.63-10.32c.37-1.26.92-2.5,1.83-3.44.89-.93,2.07-1.51,3.12-2.25,1.05-.74,2.05-1.72,2.28-2.99.26,2.12-1.23,4.36-2.21,6.26-1.55,3.02-2.53,6.54-1.68,9.83.39,1.53,1.16,2.94,1.92,4.32,1.22,2.24,2.44,4.47,3.67,6.71,1.14.11,2.19.43,3.32.54-.07-.31-.06-.53,0-.84l.67-.2c-1.87-1.21-3.18-3.26-3.51-5.47-.02-.14-.04-.29-.15-.38-.11-.09-.27-.09-.41-.1-.39-.05-.75-.34-.88-.72s-.02-.83.27-1.1c-.78-1.31-1.23-2.85-1.31-4.37-.36-.03-.67-.18-1.03-.21.61,2.12,1.04,4.3,1.27,6.49-.88-.32-1.38-1.2-1.83-2.02-1.6-2.87-2.44-6.41-1.24-9.47.18-.46.47-.96.95-1.06.52,1.28.82,2.66.87,4.04.27-.07.7-.02.97-.1-.65-1.24-.91-2.67-.73-4.06.11-.91.41-1.79.67-2.67.61-2.07,1.06-4.18,1.51-6.29.13-.61.26-1.23.24-1.86-3.36,4.18-8.75,6.84-10.79,11.81-.4.98-.73,2.1-1.65,2.62.54.88,1.4,1.71,2,2.56s1.09,1.82,1.11,2.85c-2.52-1.18-4.28-3.81-5.68-6.23-.7-1.21-1.38-2.43-2.04-3.67-.56-1.05-1.13-2.2-.96-3.37-.59.71-1.22,1.3-1.81,2.01.24.08.35.36.44.6.51,1.43,1.25,2.78,2.18,3.98-1.17-1.32-2.24-2.74-3.03-4.31-.28.41-.64.86-.92,1.27,3.18,3.09,5.15,7.24,8.07,10.58,2.76,3.17,6.29,5.71,8.44,9.32.98-.76,2.07-.73,3.17-.15Z"/>
  </g>
</svg>